<?xml version="1.0" encoding="UTF-8" standalone="no"?>
<!-- Created with Inkscape (http://www.inkscape.org/) -->

<svg
   xmlns:dc="http://purl.org/dc/elements/1.1/"
   xmlns:cc="http://creativecommons.org/ns#"
   xmlns:rdf="http://www.w3.org/1999/02/22-rdf-syntax-ns#"
   xmlns:svg="http://www.w3.org/2000/svg"
   xmlns="http://www.w3.org/2000/svg"
   xmlns:sodipodi="http://sodipodi.sourceforge.net/DTD/sodipodi-0.dtd"
   xmlns:inkscape="http://www.inkscape.org/namespaces/inkscape"
   width="210.70914mm"
   height="210.70912mm"
   viewBox="0 0 746.60718 746.60712"
   id="svg2"
   version="1.1"
   inkscape:version="0.91 r13725"
   sodipodi:docname="icon.svg">
  <defs
     id="defs4" />
  <sodipodi:namedview
     id="base"
     pagecolor="#ffffff"
     bordercolor="#666666"
     borderopacity="1.0"
     inkscape:pageopacity="0.0"
     inkscape:pageshadow="2"
     inkscape:zoom="0.35"
     inkscape:cx="-149.40005"
     inkscape:cy="213.30358"
     inkscape:document-units="px"
     inkscape:current-layer="layer1"
     showgrid="false"
     fit-margin-top="0"
     fit-margin-left="0"
     fit-margin-right="0"
     fit-margin-bottom="0"
     inkscape:window-width="1920"
     inkscape:window-height="1137"
     inkscape:window-x="1358"
     inkscape:window-y="-8"
     inkscape:window-maximized="1" />
  <metadata
     id="metadata7">
    <rdf:RDF>
      <cc:Work
         rdf:about="">
        <dc:format>image/svg+xml</dc:format>
        <dc:type
           rdf:resource="http://purl.org/dc/dcmitype/StillImage" />
        <dc:title></dc:title>
      </cc:Work>
    </rdf:RDF>
  </metadata>
  <g
     inkscape:label="Ebene 1"
     inkscape:groupmode="layer"
     id="layer1"
     transform="translate(0.87501456,0.94135826)">
    <g
       id="g4147"
       transform="matrix(3.0630037,0,0,3.0630037,-10.446861,1.9420256)">
      <path
         style="fill:#fafdfd"
         d="m 3.1249869,120.93364 0,-121.87499827 121.8750031,0 121.875,0 0,121.87499827 0,121.875 -121.875,0 -121.8750031,0 0,-121.875 z"
         id="path4163"
         inkscape:connector-curvature="0" />
      <path
         style="fill:#a9e4d9"
         d="m 3.1249869,120.93364 0,-121.87499827 121.8750031,0 121.875,0 0,121.87499827 0,121.875 -121.875,0 -121.8750031,0 0,-121.875 z M 146.41314,201.03452 c 26.29178,-8.38252 47.93111,-31.59139 54.82442,-58.801 2.45579,-9.6936 2.78214,-74.280171 0.38743,-76.674878 -2.34607,-2.346065 -85.62994,-2.067872 -94.5863,0.315947 -17.910338,4.767006 -32.022601,16.255593 -39.520976,32.173449 -7.716172,16.380202 -8.456476,32.415442 -2.348755,50.874842 6.646815,20.0887 18.818987,32.04044 41.066411,40.3227 6.08812,2.26649 6.12665,2.31161 1.36753,1.60166 -18.257807,-2.72361 -37.970301,-16.98516 -48.206663,-34.87646 -4.67782,-8.17598 -8.77125,-23.65231 -8.77125,-33.16214 0,-9.10884 3.975411,-24.639292 8.410185,-32.855457 4.445424,-8.235895 16.178096,-20.817605 24.232525,-25.986118 3.457032,-2.218372 10.042289,-5.476286 14.633902,-7.239808 8.336651,-3.201898 8.418991,-3.207344 58.581121,-3.87501 l 50.23273,-0.668605 3.71685,-3.563177 c 2.04426,-1.959746 3.99625,-4.631621 4.33774,-5.9375 0.60271,-2.304762 -0.92624,-2.374323 -52.18713,-2.374323 -59.62052,0 -63.513859,0.462 -81.083526,9.621718 -13.122913,6.841462 -27.598065,21.620755 -34.299018,35.019685 -12.902172,25.798615 -12.004712,55.760295 2.398638,80.078505 11.429513,19.29728 34.190555,34.97119 56.675246,39.02822 10.75807,1.94113 28.84194,0.57951 40.13889,-3.02225 z m 3.3833,-40.18059 c -1.1382,-2.96608 1.63792,-7.90868 5.77602,-10.28363 8.6373,-4.95712 12.9407,-27.89458 7.4321,-39.61363 -3.07057,-6.53234 -10.37887,-13.528532 -17.039,-16.311311 -11.40487,-4.765262 -27.55436,-0.982325 -36.07659,8.450761 -6.04479,6.69087 -8.31829,12.59103 -8.31829,21.58752 0,9.16969 2.68344,15.95955 8.80284,22.27369 l 4.62647,4.77369 -3.50721,3.03881 c -4.49796,3.89725 -12.028422,4.07049 -17.946608,0.41285 -8.832205,-5.4586 -11.928111,-19.21261 -6.218436,-27.62629 1.624012,-2.39311 3.655787,-7.39349 4.515056,-11.11193 1.929904,-8.35157 5.819647,-15.28663 12.099808,-21.572831 14.53788,-14.551876 36.69921,-16.434114 54.71037,-4.646739 2.69664,1.764813 7.69849,4.054192 11.11523,5.087507 8.87461,2.683935 13.67076,8.879533 14.28484,18.452933 0.57806,9.01202 -2.53464,14.65247 -9.62248,17.43665 -3.8998,1.53189 -4.98064,2.69026 -5.60235,6.0043 -0.42369,2.25842 -2.16149,6.72262 -3.86177,9.92044 -1.7003,3.19781 -3.09145,6.36972 -3.09145,7.04868 0,0.67895 -1.23079,2.89919 -2.73508,4.93385 -2.99412,4.04978 -8.09354,5.00198 -9.34347,1.74468 z"
         id="path4161"
         inkscape:connector-curvature="0" />
      <path
         style="fill:#85c4b7"
         d="m 3.1249869,120.93364 0,-121.87499827 121.8750031,0 121.875,0 0,121.87499827 0,121.875 -121.875,0 -121.8750031,0 0,-121.875 z M 140.51474,203.38249 c 23.45833,-5.52947 44.93675,-23.06874 55.39856,-45.23842 7.02721,-14.89144 7.51535,-18.22705 8.12649,-55.53235 0.55991,-34.178271 0.53547,-34.602805 -2.1464,-37.284672 -2.6987,-2.698706 -2.94047,-2.710434 -46.67808,-2.264276 -42.0588,0.429032 -44.31766,0.572976 -52.09032,3.31942 -10.612934,3.750042 -18.256922,8.71684 -25.975206,16.877787 -28.087821,29.698731 -18.800386,83.230311 17.599342,101.440351 4.791463,2.39707 9.573674,4.35831 10.627144,4.35831 1.05346,0 1.57682,0.33856 1.16303,0.75235 -0.96103,0.96104 -12.699441,-2.91232 -18.414313,-6.07621 -14.306365,-7.92034 -26.967474,-22.27588 -32.641139,-37.0095 -3.829542,-9.94471 -4.74992,-31.83156 -1.772292,-42.14563 6.637042,-22.989767 24.564826,-41.136246 48.163434,-48.750961 5.91723,-1.909351 13.66644,-2.317775 55.625,-2.931724 36.20132,-0.529708 49.47063,-1.125063 51.54956,-2.312878 2.75714,-1.575317 6.57544,-7.560394 6.57544,-10.30681 0,-1.026628 -14.57378,-1.272519 -54.0625,-0.912155 -46.35837,0.423055 -55.13128,0.799498 -61.562503,2.64163 -24.272461,6.952501 -43.10665,22.33733 -53.775531,43.92689 -6.132565,12.409865 -8.558559,22.888218 -8.537462,36.874998 0.03295,21.84358 7.318987,40.08963 22.382967,56.05251 12.130081,12.85392 28.128838,22.11307 43.433969,25.13705 8.74568,1.72798 28.45923,1.40003 37.01081,-0.61571 z m 10.36025,-42.07385 c -0.825,-0.825 -1.47978,-2.09062 -1.45505,-2.8125 0.0673,-1.964 5.26317,-7.6873 7.80058,-8.59236 4.04189,-1.44169 7.48503,-11.74163 8.01292,-23.97014 0.4512,-10.45245 0.23842,-11.69308 -3.00144,-17.5 -3.91516,-7.0173 -12.47625,-13.501461 -20.78534,-15.742791 -12.02687,-3.244177 -27.0032,2.507739 -34.24218,13.151291 -9.540813,14.02796 -8.526723,28.40023 2.94993,41.80811 l 4.36938,5.10464 -4.1369,2.59253 c -15.677247,9.82466 -33.429973,-14.06338 -21.791349,-29.3224 1.803696,-2.36476 3.279446,-5.441 3.279446,-6.83608 0,-4.97917 5.163922,-16.21455 9.953023,-21.655253 14.32455,-16.273547 40.10819,-19.369472 56.58284,-6.794085 2.99606,2.286941 7.62531,4.511506 10.28724,4.943476 9.61225,1.559852 17.0111,12.746742 15.11505,22.853572 -1.01273,5.39825 -7.84187,13.02199 -11.66477,13.02199 -1.91358,0 -2.8129,1.34979 -3.9559,5.9375 -0.81362,3.26563 -2.5679,7.79778 -3.8984,10.07145 -1.3305,2.27368 -2.41908,4.90239 -2.41908,5.84159 0,2.26441 -6.0622,9.39946 -7.98612,9.39946 -0.83263,0 -2.18888,-0.675 -3.01388,-1.5 z"
         id="path4159"
         inkscape:connector-curvature="0" />
      <path
         style="fill:#59aa9a"
         d="m 3.1249869,120.93364 0,-121.87499827 121.8750031,0 121.875,0 0,121.87499827 0,121.875 -121.875,0 -121.8750031,0 0,-121.875 z M 141.79182,203.24659 c 27.36019,-7.10047 48.71075,-27.14642 58.39299,-54.82495 3.45351,-9.87252 3.49913,-10.39745 3.94461,-45.40123 0.41052,-32.255507 0.25709,-35.627175 -1.7206,-37.812503 -2.05838,-2.274494 -4.32265,-2.398137 -43.54007,-2.37756 -31.09783,0.01631 -43.46975,0.466912 -49.83102,1.814893 -22.540899,4.776515 -40.631836,22.217567 -46.716617,45.0384 -2.230886,8.36689 -2.134046,24.63025 0.201261,33.79988 4.561079,17.90915 16.841158,33.87386 32.038914,41.65216 4.366285,2.23469 6.532452,3.68649 4.813699,3.22621 -13.353958,-3.57612 -32.917171,-20.26304 -39.83958,-33.98212 -18.955495,-37.5667 -1.527203,-81.984965 38.013497,-96.882333 7.148426,-2.693242 9.482066,-2.832793 57.451086,-3.435534 36.5783,-0.459615 50.72895,-1.045569 52.71556,-2.18286 3.73549,-2.13849 7.90944,-7.673699 7.90944,-10.488975 0,-2.236776 -2.04258,-2.331043 -50.3125,-2.321984 -29.13183,0.0055 -53.71948,0.562199 -58.40542,1.322458 -25.920938,4.205473 -48.977662,21.499666 -60.718343,45.5431 -8.880625,18.186398 -11.130425,34.417678 -7.327588,52.865198 8.444089,40.96216 45.815695,69.81091 86.680691,66.91255 5.11052,-0.36247 12.42302,-1.47162 16.24999,-2.4648 z m 8.79332,-43.01242 c -1.20185,-2.24565 -0.59019,-3.33763 4.78902,-8.54969 4.37931,-4.24324 6.81796,-7.93553 8.41313,-12.73804 2.9154,-8.7773 3.04111,-22.90669 0.25068,-28.17545 -11.18066,-21.110847 -37.11938,-25.624996 -53.44353,-9.30085 -12.821718,12.82172 -13.356367,31.69934 -1.2871,45.44548 4.47237,5.09375 4.16082,6.60492 -1.88222,9.12986 -12.012936,5.01932 -25.562432,-9.26473 -21.853586,-23.03834 0.7111,-2.64081 2.346639,-5.7551 3.63453,-6.92062 1.296455,-1.17328 2.690589,-4.66513 3.123458,-7.82325 1.085972,-7.92304 7.756888,-19.845927 13.937548,-24.910516 8.78056,-7.195011 16.11402,-9.813656 27.48292,-9.813656 10.73315,0 18.28035,2.481047 26.41027,8.682047 2.22636,1.698123 5.23839,3.087497 6.6934,3.087497 3.78501,0 9.37624,3.160581 12.40671,7.013208 8.146,10.35596 4.6549,25.89905 -6.43535,28.65149 -2.70395,0.67108 -3.7125,1.94054 -4.7908,6.03016 -0.75121,2.84908 -2.72561,7.64162 -4.38753,10.65008 -1.66194,3.00847 -3.0217,6.16699 -3.0217,7.01892 0,2.33283 -4.93712,8.13614 -6.92175,8.13614 -0.95717,0 -2.36032,-1.15851 -3.1181,-2.57447 z"
         id="path4157"
         inkscape:connector-curvature="0" />
      <path
         style="fill:#2a9882"
         d="m 3.1249869,120.93364 0,-121.87499827 121.8750031,0 121.875,0 0,121.87499827 0,121.875 -121.875,0 -121.8750031,0 0,-121.875 z M 146.25221,202.22675 c 14.63189,-4.90575 22.53364,-9.86473 33.76623,-21.19106 11.56207,-11.65856 18.10696,-22.94132 21.89155,-37.7389 2.15191,-8.41389 2.465,-13.88806 2.465,-43.09882 0,-28.752203 -0.27642,-33.737168 -1.96429,-35.425042 -2.88005,-2.880056 -83.77421,-2.923693 -94.96059,-0.05122 C 91.240528,68.884047 78.994718,77.510663 70.384022,90.833085 57.301697,111.07399 56.762357,139.12819 69.033241,161.0951 c 3.394997,6.07759 13.178005,16.78908 19.091746,20.90369 1.71875,1.19586 0.649165,0.88291 -2.376856,-0.69543 C 78.010159,177.2673 69.164534,169.00855 63.599007,160.62373 38.684221,123.08802 55.966348,72.938813 99.216809,57.268143 105.72695,54.909362 109.99883,54.672029 156.66047,54.076748 l 50.41049,-0.643106 4.27701,-4.669144 c 2.35237,-2.568029 4.27702,-5.802404 4.27702,-7.1875 0,-2.484823 -0.70474,-2.518356 -52.92505,-2.518356 -59.70942,0 -63.559923,0.454787 -81.200556,9.5907 -13.723753,7.107398 -28.992318,22.839975 -35.74109,36.827263 -6.994735,14.497067 -9.302687,25.832205 -8.491988,41.707035 1.040058,20.36609 7.988051,36.86986 21.91521,52.05583 11.53918,12.58216 30.405887,23.09921 46.641014,25.99955 11.57068,2.06706 29.19707,0.75378 40.42968,-3.01227 z m 4.37278,-43.22492 c 0,-1.40625 1.54687,-3.97674 3.4375,-5.7122 1.89062,-1.73545 4.3917,-4.02653 5.55796,-5.09126 5.7442,-5.24427 8.81769,-25.03843 5.45825,-35.15276 -2.56784,-7.73103 -12.72268,-17.698107 -20.36403,-19.987513 -22.46977,-6.732108 -43.98148,8.880033 -44.06223,31.978193 -0.0323,9.24614 2.01268,14.75235 8.13584,21.90588 l 4.47674,5.23006 -2.7085,2.19321 c -1.64642,1.33319 -4.8223,2.1932 -8.09911,2.1932 -13.341116,0 -21.706773,-17.46837 -13.885294,-28.99397 1.62092,-2.38855 3.352872,-6.54518 3.848781,-9.23693 1.46917,-7.97454 5.161349,-15.04597 11.260293,-21.56623 14.09863,-15.07258 37.65252,-17.367622 54.81712,-5.341265 2.88843,2.023769 7.22043,4.077753 9.62668,4.56441 5.94338,1.202032 10.5379,4.673635 12.97088,9.800785 2.51939,5.3092 2.61389,13.51652 0.20918,18.16672 -1.62711,3.14651 -8.45605,7.60648 -11.64671,7.60648 -0.66762,0 -1.55733,2.14806 -1.97714,4.77349 -0.41983,2.62541 -2.17921,7.43642 -3.90976,10.69114 -1.73055,3.25471 -3.14645,6.6336 -3.14645,7.50862 0,2.24445 -5.3719,7.02675 -7.89307,7.02675 -1.28921,0 -2.10693,-0.99232 -2.10693,-2.55681 z"
         id="path4155"
         inkscape:connector-curvature="0" />
      <path
         style="fill:#25967e"
         d="m 3.1249869,120.93364 0,-121.87499827 121.8750031,0 121.875,0 0,121.87499827 0,121.875 -121.875,0 -121.8750031,0 0,-121.875 z M 133.27375,205.95435 c 10.30547,-1.82406 23.83399,-6.58195 32.264,-11.34703 5.66774,-3.20372 26.33724,-23.72673 26.33724,-26.15059 0,-1.04395 0.49323,-1.89809 1.09607,-1.89809 1.52801,0 7.97426,-15.6529 11.06778,-26.875 0.37903,-1.375 0.94532,-17.58044 1.25841,-36.01208 0.63879,-37.605696 0.22531,-40.300268 -6.37375,-41.537225 -4.21314,-0.789728 -84.569,0.04549 -89.21055,0.927253 -1.53287,0.291202 -3.17349,0.915917 -3.64583,1.388256 -0.47234,0.472339 -1.81009,0.858798 -2.97278,0.858798 -4.448642,0 -19.175266,8.998575 -25.409377,15.52618 -7.10817,7.442813 -9.72044,10.50251 -9.401464,11.011735 0.116138,0.185397 -1.041975,2.793411 -2.573571,5.795586 -2.783335,5.455787 -3.096796,6.419307 -5.13741,15.791497 -3.786264,17.38966 2.26298,42.85044 13.486934,56.76544 3.077724,3.81562 3.143951,4.0805 0.628035,2.51181 -1.546875,-0.96449 -2.8125,-2.1041 -2.8125,-2.53247 0,-0.42838 -1.506985,-2.28585 -3.348856,-4.12773 -4.680295,-4.68029 -8.664604,-12.02791 -12.397695,-22.86305 -3.627939,-10.52995 -4.097079,-31.67931 -0.867968,-39.129 0.447001,-1.03125 0.913668,-2.80385 1.037036,-3.9391 0.38621,-3.553985 8.941089,-17.70431 13.930032,-23.04118 5.79035,-6.194168 16.374342,-14.269718 18.702203,-14.269718 0.932387,0 1.695248,-0.446014 1.695248,-0.991143 0,-0.969345 8.783402,-4.12786 17.500003,-6.293009 2.40625,-0.597697 24.93847,-1.163498 50.07161,-1.257336 28.50589,-0.106425 47.0804,-0.667606 49.375,-1.491724 4.47845,-1.608455 8.13566,-6.34265 8.44722,-10.934762 l 0.23117,-3.407026 -55,0.0179 -55,0.0179 -10.455547,3.519166 c -5.75055,1.93555 -13.125261,5.161867 -16.388249,7.169604 -3.262987,2.007736 -6.353803,3.65043 -6.868482,3.65043 -1.025519,0 -17.466658,16.424883 -20.975225,20.954487 -1.203125,1.55325 -2.1875,3.38016 -2.1875,4.059801 0,0.679642 -0.5625,1.235712 -1.25,1.235712 -0.6875,0 -1.143249,0.421875 -1.012775,0.9375 0.130474,0.515625 -1.263933,3.971348 -3.098681,7.679385 -7.256803,14.666043 -9.49939,30.757153 -6.61373,47.455123 2.779988,16.0865 10.090777,32.25685 19.078432,42.1986 1.936965,2.14258 4.245844,4.95508 5.130843,6.25 0.885,1.29492 1.266186,1.51064 0.847082,0.47939 -0.419104,-1.03125 0.544306,-0.43906 2.140911,1.31596 5.028792,5.52779 19.318737,13.80275 29.423313,17.03833 8.206378,2.62775 12.986558,3.54115 27.378368,5.23142 0.76932,0.0904 6.11307,-0.67013 11.875,-1.69 z m 19.07106,-45.44886 c -0.64816,-0.45201 -1.13955,-1.38435 -1.09199,-2.07185 0.15454,-2.23351 3.6834,-6.875 5.22697,-6.875 0.82688,0 2.36615,-1.23169 3.42057,-2.73709 1.05441,-1.50538 2.35105,-2.30315 2.88141,-1.7728 0.53035,0.53037 -0.01,1.67704 -1.20182,2.54819 -1.19136,0.87114 -1.83879,1.9112 -1.43874,2.31125 0.92769,0.9277 -3.29261,8.1431 -5.18844,8.8706 -0.78622,0.3017 -1.95981,0.17871 -2.60796,-0.2733 z m -56.952208,-6.25031 c -4.230195,-2.96294 -7.1361,-6.16139 -6.330115,-6.96738 0.401041,-0.40103 0.166666,-0.72916 -0.520834,-0.72916 -1.391652,0 -1.814876,-1.948 -2.065777,-9.50825 -0.122238,-3.68335 0.78175,-6.57196 3.200511,-10.22696 1.853976,-2.80155 3.583997,-7.02777 3.84449,-9.39161 1.148837,-10.42511 10.997753,-23.37016 22.036443,-28.963891 12.36488,-6.265759 29.47177,-5.0344 41.819,3.010146 4.28888,2.794312 9.23492,5.080567 10.9912,5.080567 3.33174,0 10.8592,6.081358 13.26377,10.715638 3.77516,7.27585 -1.66443,21.22849 -8.83529,22.66266 -3.91711,0.78343 -4.30956,1.20223 -5.1158,5.45929 -0.93448,4.9342 -3.31264,10.32165 -4.1754,9.45889 -0.44014,-0.44014 -0.15804,-2.06503 0.62689,-3.61087 2.11876,-4.17268 3.59155,-18.29985 2.5413,-24.37643 -1.20395,-6.96586 -8.80669,-18.345261 -13.57682,-20.321111 -2.04665,-0.847752 -3.72118,-2.129376 -3.72118,-2.848051 0,-0.718675 -0.35522,-0.951474 -0.78935,-0.517329 -0.43415,0.434144 -1.98103,0.146944 -3.4375,-0.638224 -6.13492,-3.307238 -19.69431,-2.078303 -27.96065,2.53417 -1.54688,0.863129 -2.8125,1.266664 -2.8125,0.896745 0,-1.755501 -8.75151,9.36118 -11.28481,14.33462 -5.741884,11.27263 -3.929061,26.16911 4.36364,35.85726 2.43164,2.84084 4.42117,5.74095 4.42117,6.44472 0,3.14915 -12.546957,4.40105 -16.482388,1.64456 z"
         id="path4153"
         inkscape:connector-curvature="0" />
      <path
         style="fill:#14a084"
         d="m 3.1249869,120.93364 0,-121.87499827 121.8750031,0 121.875,0 0,121.87499827 0,121.875 -121.875,0 -121.8750031,0 0,-121.875 z M 136.87545,206.06378 c 9.0901,-1.95224 10.87651,-2.5228 18.38326,-5.87151 17.51251,-7.8122 34.92353,-24.68578 42.44375,-41.13363 7.4389,-16.26995 9.17934,-28.22901 9.14473,-62.835697 -0.032,-31.944549 -0.30748,-32.896983 -10.03137,-34.675119 -8.47738,-1.5502 -64.33246,-1.512051 -77.52738,0.05295 -20.115281,2.385801 -30.532694,7.124923 -42.176296,19.186968 -12.824058,13.284925 -17.699278,25.544728 -17.70413,44.520898 -0.0036,14.24044 1.77735,22.97423 6.72255,32.96665 1.719653,3.47479 2.912498,6.53194 2.650767,6.79368 -1.233382,1.23337 -10.894442,-16.71343 -13.328885,-24.76033 -2.113357,-6.98556 -2.098287,-28.80896 0.0246,-35.625 6.672654,-21.424138 21.405405,-37.025556 43.27294,-45.824378 7.154804,-2.878873 17.449304,-3.491998 59.102654,-3.520063 49.78281,-0.03354 51.32815,-0.235977 56.42318,-7.391294 1.52487,-2.14147 2.59285,-5.158236 2.37332,-6.703923 l -0.39915,-2.81034 -55.625,0.0036 C 95.956876,38.441327 98.462434,38.087227 75.730514,50.435414 70.604082,53.220139 51.874987,70.265 51.874987,72.145708 c 0,0.460622 -1.564073,3.188844 -3.475718,6.062715 -7.27843,10.942026 -10.359232,20.24758 -12.695337,38.346227 -0.785519,6.0857 -0.779778,11.34443 0.01637,15 0.674274,3.09594 1.819504,8.44149 2.544959,11.87899 3.045113,14.429 16.19405,35.10285 28.391038,44.63875 7.751794,6.06054 8.435109,6.55511 11.5628,8.36891 7.571339,4.39075 11.415443,5.79238 27.405881,9.99267 6.69178,1.75776 22.19742,1.57408 31.25046,-0.37019 z m 14.99954,-47.39444 c 0,-1.94302 4.57755,-7.1107 6.2987,-7.1107 1.77807,0 1.46233,2.18956 -0.81747,5.66898 -2.15326,3.2863 -5.48123,4.16165 -5.48123,1.44172 z m -57.750389,-5.95931 c -8.096475,-6.04326 -9.70578,-18.43831 -3.464839,-26.68656 2.207457,-2.91746 3.715225,-6.43517 3.715225,-8.66785 0,-9.41171 11.131793,-23.528835 22.858353,-28.98852 5.24951,-2.444078 8.54501,-3.036411 16.94813,-3.046247 10.88538,-0.01274 12.90259,0.700357 27.69352,9.789862 2.40625,1.47872 5.92187,2.690684 7.8125,2.693254 1.89062,0.0026 3.4375,0.567173 3.4375,1.254673 0,0.6875 0.70312,1.256958 1.5625,1.265478 3.12882,0.031 7.1875,8.42845 7.1875,14.87108 0,7.33661 -3.71665,12.6668 -10.22439,14.66319 l -4.15061,1.27329 -0.0602,-8.84902 c -0.0914,-13.44101 -5.87297,-22.25079 -18.87129,-28.755503 -12.83803,-6.424502 -31.56791,-2.96589 -40.1192,7.408303 -7.0535,8.55712 -9.074263,13.85885 -9.074263,23.80749 0,10.35905 1.196703,13.88519 7.298263,21.50469 3.51402,4.38824 3.98448,5.64039 2.70049,7.1875 -2.28145,2.74898 -11.160369,2.32678 -15.249139,-0.72511 z"
         id="path4151"
         inkscape:connector-curvature="0" />
      <path
         style="fill:#159e84"
         d="m 3.1249869,120.93364 0,-121.87499827 121.8750031,0 121.875,0 0,121.87499827 0,121.875 -121.875,0 -121.8750031,0 0,-121.875 z m 65.0000001,87.5 c 0,-1.03125 -0.84375,-1.875 -1.875,-1.875 -1.951968,0 -2.479959,1.47838 -1.041666,2.91666 1.438291,1.4383 2.916666,0.9103 2.916666,-1.04166 z m 10,-0.75874 c 0,-1.42826 -3.389691,-1.46052 -4.267246,-0.0406 -0.365633,0.59161 -0.343837,1.3966 0.04844,1.78887 0.97547,0.97549 4.218809,-0.36855 4.218809,-1.74825 z m 77.128623,-0.70145 c 0.53553,-1.39557 0.9775,-1.31371 2.24173,0.41523 1.48861,2.03579 1.69445,2.03374 3.76571,-0.0375 2.08804,-2.08804 2.07125,-2.22235 -0.35695,-2.85734 -2.9516,-0.77186 -4.50483,-4.98516 -2.1683,-5.88176 1.59514,-0.61211 4.38919,1.38659 4.38919,3.13977 0,1.67495 6.30628,7.30682 8.18181,7.30682 3.47707,0 1.86695,-3.80275 -1.93181,-4.5625 -3.79897,-0.75979 -4.77785,-2.15472 -2.5,-3.5625 2.06895,-1.27869 1.4111,-2.70504 -1.19883,-2.59925 -1.34685,0.0546 -2.33122,-0.46325 -2.1875,-1.15075 0.14373,-0.6875 1.8082,-1.07339 3.69883,-0.85754 1.89062,0.21585 3.4375,-0.20603 3.4375,-0.9375 0,-0.73148 0.81055,-1.32996 1.80122,-1.32996 1.97473,0 3.85089,-2.26455 2.77091,-3.34453 -0.37301,-0.37304 -2.43047,0.5695 -4.57213,2.0945 -2.14167,1.525 -4.19098,2.47569 -4.55403,2.11264 -0.36305,-0.36305 0.65371,-1.33466 2.25946,-2.15915 1.60577,-0.82449 4.97817,-3.46589 7.49423,-5.86979 2.51607,-2.40389 5.1815,-3.99567 5.92319,-3.53729 0.86393,0.53394 1.05108,0.0584 0.52082,-1.3235 -0.64909,-1.69148 -0.34622,-1.97217 1.40349,-1.30075 1.71395,0.65772 2.04972,0.38332 1.44844,-1.18363 -0.61007,-1.5898 -0.20665,-1.88917 1.82858,-1.35694 2.93329,0.76707 8.02439,-3.4018 6.72395,-5.50595 -1.21267,-1.96215 3.21925,-6.12564 6.5206,-6.12564 2.04272,0 2.93127,-0.71729 2.93127,-2.36626 0,-2.54913 -3.15704,-4.39775 -5.27497,-3.0888 -0.7292,0.45067 -1.0556,0.0411 -0.74383,-0.93344 0.30553,-0.95507 1.78476,-2.29176 3.28716,-2.97041 1.55744,-0.70351 2.69387,-2.31546 2.64377,-3.75 -0.0851,-2.43858 -0.117,-2.44164 -1.03436,-0.0991 -0.52059,1.32938 -1.28769,1.86502 -1.70466,1.19033 -1.14258,-1.84871 1.07937,-4.69074 3.07007,-3.92684 1.10183,0.42281 1.81375,-0.23627 1.93059,-1.78734 0.15974,-2.12067 -0.0941,-2.23025 -1.85339,-0.80016 -1.79037,1.45533 -1.91225,1.35273 -1.00143,-0.84301 2.5132,-6.0587 3.46085,-17.04611 4.02196,-46.63196 0.44582,-23.507423 0.21502,-32.095708 -0.89856,-33.437502 -1.18214,-1.42439 -1.13632,-1.815868 0.2171,-1.854466 3.91711,-0.111713 -7.30738,-3.79424 -12.2162,-4.007883 -3.04724,-0.132621 -4.69324,-0.64555 -3.83068,-1.193725 1.14771,-0.729401 1.11785,-0.965799 -0.12387,-0.980324 -0.89995,-0.0105 -1.31832,-0.533597 -0.92972,-1.162378 0.38862,-0.62878 -6e-5,-1.428123 -0.86372,-1.776315 -0.86366,-0.348194 0.53909,-0.677488 3.11721,-0.731764 2.57813,-0.05427 4.6875,0.401316 4.6875,1.012427 0,1.223955 4.00444,1.219843 5,-0.0051 1.41338,-1.739067 6.0842,-2.38552 6.96294,-0.963687 0.63825,1.032704 0.38126,1.16729 -0.8323,0.435899 -1.49524,-0.901148 -1.50119,-0.744393 -0.0401,1.056865 1.83954,2.267787 1.08739,2.687952 -3.90305,2.180317 -1.20312,-0.122387 -2.1875,0.449406 -2.1875,1.270644 0,1.021445 1.58587,1.28045 5.01989,0.819851 4.53493,-0.608262 5.52583,-0.201515 10.25719,4.210414 2.88059,2.686099 5.9322,4.883774 6.78141,4.883774 2.75029,0 3.26988,-2.648197 0.65381,-3.332313 -1.39661,-0.365222 -2.84181,-1.452362 -3.21153,-2.415865 -0.36973,-0.963502 -1.60252,-1.751822 -2.73953,-1.751822 -1.61946,0 -1.75607,-0.374992 -0.63064,-1.731059 1.1471,-1.38217 0.78847,-1.893743 -1.77942,-2.538243 -1.76885,-0.443951 -3.89334,-0.400748 -4.7211,0.09601 -1.11029,0.666311 -1.09806,0.400299 0.0466,-1.014269 0.85342,-1.054602 1.13467,-2.377762 0.625,-2.940355 -0.50965,-0.562591 -0.33611,-0.687846 0.38567,-0.278342 0.72177,0.409503 1.97916,-0.32325 2.79421,-1.628343 1.26584,-2.02694 1.16564,-2.27364 -0.68731,-1.692102 -1.96514,0.616745 -1.98114,0.524193 -0.17018,-0.98375 1.09948,-0.915499 2.20785,-2.227044 2.46306,-2.914544 0.25522,-0.6875 1.32439,-1.055899 2.37597,-0.818664 2.82527,0.637388 3.05675,1.186163 1.36178,3.228471 -2.90405,3.499164 3.26832,14.122032 6.39107,10.999275 1.10283,-1.102835 0.95085,-1.644487 -0.63189,-2.25184 -1.54696,-0.593635 -2.08401,-2.354172 -2.08401,-6.83175 0,-4.836835 -0.47248,-6.181986 -2.38453,-6.788847 -3.8717,-1.228829 -4.13235,-4.283694 -0.64154,-7.518866 3.08965,-2.863392 3.12758,-3.075819 1.10123,-6.168419 -2.49698,-3.810866 -4.64851,-3.072916 -3.56994,1.224445 1.02451,4.081995 -0.19969,6.935906 -2.58291,6.021379 -1.20711,-0.463214 -1.92231,-2.315628 -1.92231,-4.978927 0,-2.90473 -0.58102,-4.241263 -1.84375,-4.241263 -1.38195,0 -1.6559,0.939265 -1.09375,3.75 0.4125,2.0625 0.25781,3.813512 -0.34375,3.891138 -0.60157,0.07763 -23.09428,0.266468 -49.98382,0.419647 -47.26261,0.269237 -48.94068,0.197441 -50.41095,-2.156822 -1.42798,-2.286573 -1.20946,-2.405631 3.57757,-1.949115 2.80414,0.267419 5.09845,0.04948 5.09845,-0.484316 0,-0.533792 -2.57143,-0.970532 -5.71429,-0.970532 -3.29392,0 -6.47298,-0.758699 -7.50551,-1.791225 -1.06836,-1.068365 -3.16486,-1.542137 -5.195054,-1.173993 -4.944732,0.896651 -4.90749,1.447663 0.162121,2.398728 5.145393,0.965281 5.772913,2.347157 1.690233,3.722062 -2.712186,0.913368 -2.689892,0.966115 0.625,1.478818 1.89062,0.292416 3.4375,0.996622 3.4375,1.564902 0,1.716821 -3.53664,2.524131 -7.826176,1.786483 -2.729557,-0.469388 -3.505271,-0.311173 -2.380658,0.485562 2.194597,1.554769 -1.940368,2.738378 -6.51291,1.864281 -2.742358,-0.524235 -3.026933,-0.973316 -1.923405,-3.035277 0.712332,-1.331005 2.701047,-2.954531 4.419366,-3.607835 1.718319,-0.653304 2.775921,-1.751378 2.350226,-2.440165 -1.107036,-1.791223 -7.246404,-1.546451 -9.901156,0.394751 -2.16988,1.586656 -2.169775,1.72985 0.0029,3.902484 2.173855,2.173855 2.167569,2.315169 -0.173878,3.908919 -5.123923,3.487693 -8.028917,6.219442 -8.041348,7.561786 -0.0071,0.767405 -2.665389,3.461801 -5.907295,5.987546 l -5.89439,4.592265 -2.055559,-2.725115 -2.055558,-2.725115 -2.675068,2.675069 c -1.471288,1.471287 -2.079372,2.675069 -1.351298,2.675069 0.728074,0 0.976128,0.5625 0.551229,1.25 -1.132991,1.833218 -2.881623,1.52378 -3.345845,-0.592085 -0.280708,-1.27943 -0.961681,-1.493642 -2.229451,-0.701312 -1.573988,0.98371 -1.530962,1.466008 0.3125,3.50301 1.175787,1.299232 2.155686,3.442947 2.17755,4.763813 0.03849,2.324895 0.09561,2.327851 1.789146,0.09258 0.962165,-1.26995 1.481176,-3.007955 1.153359,-3.862233 -0.805167,-2.098232 3.021747,-5.199762 4.541136,-3.680373 0.723254,0.723253 -0.675753,3.183863 -3.67696,6.467137 -2.66442,2.914834 -5.178385,6.170048 -5.586589,7.23381 -0.408204,1.063763 -1.368716,1.546898 -2.134471,1.073635 -1.019268,-0.629942 -1.013718,-1.094442 0.02071,-1.733757 2.444947,-1.51106 -2.616993,-4.778244 -6.042445,-3.900043 l -3.021357,0.774601 3.373689,2.210527 c 1.855528,1.215788 3.032703,2.76225 2.615945,3.436581 -0.41676,0.67433 -0.294059,1.145506 0.272667,1.047059 2.748356,-0.477429 2.864909,0.41301 0.49053,3.747517 -1.421814,1.996755 -2.585116,4.17788 -2.585116,4.846945 0,0.669064 -0.869349,1.937976 -1.931886,2.819804 -1.062538,0.881827 -1.649604,2.338939 -1.304593,3.238025 0.345011,0.899085 0.163246,1.921499 -0.403924,2.272029 -0.567168,0.35053 -1.468356,3.040418 -2.002636,5.977531 -0.891092,4.898625 -1.033874,5.058805 -1.726691,1.937185 -0.532989,-2.401489 -1.23646,-3.102363 -2.390258,-2.381431 -1.062312,0.663766 -1.34398,2.181071 -0.804158,4.331881 0.456956,1.82066 1.385078,2.96775 2.062492,2.54909 0.799768,-0.49429 0.879726,2.24827 0.228024,7.82113 -0.552001,4.7203 -0.919659,10.26985 -0.817018,12.33235 0.102638,2.0625 0.270022,6.27818 0.371958,9.36818 0.101937,3.09 0.623277,5.9025 1.158537,6.25 1.85777,1.20611 2.860353,6.34392 1.166092,5.97572 -0.870355,-0.18915 -1.813547,0.72255 -2.09598,2.02599 -0.371943,1.71651 0.01318,2.16777 1.39687,1.6368 1.050713,-0.4032 2.593576,0.0901 3.428583,1.09622 1.245012,1.50015 1.148994,1.68764 -0.533607,1.04197 -1.377843,-0.52873 -2.051805,-0.12753 -2.051805,1.22138 0,1.10482 -0.5625,2.00874 -1.25,2.00874 -0.6875,0 -1.25,-0.67001 -1.25,-1.48891 0,-0.8189 -0.784658,-0.41583 -1.743684,0.89571 -1.359776,1.85961 -1.409322,2.66905 -0.225037,3.67641 0.835256,0.71049 2.508608,2.88747 3.718562,4.83774 1.209954,1.95028 2.52509,3.22079 2.922526,2.82335 0.397435,-0.39744 1.490367,-0.0854 2.428737,0.69335 1.371137,1.13794 1.52837,0.95174 0.800798,-0.94835 -0.49793,-1.30036 -2.057682,-3.3072 -3.466115,-4.45964 l -2.560787,-2.09532 2.611496,-2.4536 2.611498,-2.4536 1.704728,4.54894 c 0.9376,2.5019 1.590552,4.9708 1.451003,5.48642 -0.139549,0.51563 0.202992,0.9375 0.761202,0.9375 0.558209,0 2.341168,1.82813 3.96213,4.0625 2.352382,3.24259 2.446837,3.62445 0.468007,1.89206 -1.912414,-1.67423 -2.81822,-1.8314 -3.962132,-0.6875 -2.056038,2.05604 -1.856478,4.73294 0.352837,4.73294 1.202231,0 1.575581,-0.75492 1.081835,-2.1875 -0.610762,-1.77209 -0.386983,-1.71536 1.178386,0.29871 1.062776,1.36743 1.667754,2.9143 1.344394,3.4375 -0.323359,0.52322 0.0078,0.95129 0.735845,0.95129 0.728073,0 1.323771,-0.94921 1.323771,-2.10936 0,-1.38541 2.559077,0.43785 7.456461,5.3125 4.72195,4.70004 7.472428,8.48035 7.5,10.30814 0.02991,1.98263 -0.445644,2.59237 -1.518961,1.94755 -1.246338,-0.74878 -1.248533,-0.55074 -0.01087,0.97873 0.85341,1.0546 1.13466,2.37777 0.625,2.94035 -0.50966,0.5626 -0.262398,0.64229 0.549472,0.1771 2.05286,-1.17625 3.407587,1.45087 1.76733,3.42725 -2.036887,2.4543 -0.685771,2.95527 6.188868,2.2947 4.789226,-0.46018 6.823299,-0.0937 8.648569,1.55813 2.353926,2.13027 5.76808,1.5976 4.360268,-0.68029 -1.059622,-1.71451 2.68526,-2.80095 6.421945,-1.86311 2.597648,0.65197 2.947523,1.15471 1.78143,2.55977 -0.798098,0.96165 -2.675865,1.98687 -4.172813,2.27827 -1.85934,0.36195 -1.434513,0.58376 1.340776,0.70005 2.42096,0.1015 4.0625,-0.43589 4.0625,-1.32978 0,-1.16666 0.333334,-1.16666 1.5,0 0.825005,0.825 2.653125,1.46435 4.062505,1.42076 2.31326,-0.0715 2.27129,-0.19571 -0.43148,-1.27685 -1.64669,-0.65868 -2.72091,-1.47068 -2.38716,-1.80445 0.81737,-0.81736 8.50453,0.76689 8.51221,1.75429 0.003,0.42969 5.3357,0.84974 11.84969,0.93344 6.514,0.0838 11.54056,-0.33816 11.17016,-0.9375 -0.37041,-0.59933 0.0629,-1.09736 0.9628,-1.10675 0.89995,-0.01 2.98986,-0.37925 4.64424,-0.82191 2.10897,-0.56429 2.7407,-0.3724 2.11372,0.64207 -1.35633,2.19461 0.3668,1.73574 3.89058,-1.03606 1.73611,-1.36564 3.68841,-2.15429 4.33842,-1.75255 0.65002,0.40172 2.2714,-0.25561 3.60308,-1.46078 2.33721,-2.11515 2.42124,-2.07601 2.42124,1.12755 0,2.45177 -0.63382,3.31874 -2.42623,3.31874 -1.33442,0 -2.75869,-0.53794 -3.16504,-1.19541 -0.88292,-1.42864 -4.4087,-0.29833 -4.4087,1.41339 0,0.66027 1.13912,0.83895 2.5314,0.39706 1.39227,-0.44189 2.45066,-0.33918 2.35197,0.22826 -0.38432,2.20984 0.21374,2.64726 2.72241,1.99123 1.43319,-0.37479 2.90597,-1.46367 3.27284,-2.41972 z m -71.816123,-5.34426 c -3.345896,-2.79126 -3.70289,-4.3177 -0.625,-2.67239 1.203125,0.64314 3.207527,1.48768 4.454227,1.87677 1.2467,0.38907 1.916629,1.27388 1.488729,1.96625 -1.082759,1.75193 -2.07701,1.53307 -5.317956,-1.17063 z m -11.5625,-1.32055 c 0,-0.6875 1.6875,-1.25 3.75,-1.25 2.0625,0 3.75,0.5625 3.75,1.25 0,0.6875 -1.6875,1.25 -3.75,1.25 -2.0625,0 -3.75,-0.5625 -3.75,-1.25 z m 2.8125,-3.40425 c -4.290953,-0.5325 -5.326283,-2.09332 -2.1875,-3.29779 1.03125,-0.39572 1.875,-0.17465 1.875,0.49127 0,0.66592 0.810552,1.21077 1.801229,1.21077 0.990676,0 2.148872,0.5625 2.573771,1.25 0.424899,0.6875 0.59872,1.15998 0.386271,1.04995 -0.212449,-0.11002 -2.214396,-0.42691 -4.448771,-0.7042 z m -5.3125,-5.41952 c 0,-0.72808 0.5625,-0.97613 1.25,-0.55123 0.6875,0.4249 1.25,1.0206 1.25,1.32378 0,0.30317 -0.5625,0.55122 -1.25,0.55122 -0.6875,0 -1.25,-0.5957 -1.25,-1.32377 z M 187.58752,176.70028 c -0.37676,-0.6096 0.29318,-1.87523 1.48873,-2.8125 1.92021,-1.50538 1.99276,-1.47204 0.62209,0.28587 -0.85342,1.0945 -1.18154,2.36013 -0.72918,2.8125 0.45238,0.45237 0.48069,0.82249 0.0629,0.82249 -0.41775,0 -1.06782,-0.49876 -1.44457,-1.10836 z m 4.24273,-7.4362 c 0.8235,-1.60575 1.84011,-2.57674 2.25911,-2.15774 0.419,0.419 -0.25479,1.7328 -1.4973,2.91956 -2.15969,2.06278 -2.19321,2.02925 -0.76181,-0.76182 z M 67.218968,163.77635 c -2.271861,-2.86658 -4.203416,-7.21788 -3.200461,-7.20981 1.148445,0.009 5.6652,7.60005 4.948635,8.31661 -0.267246,0.26725 -1.053925,-0.23081 -1.748174,-1.1068 z m 127.781022,0.28229 c 0.4249,-0.6875 1.0206,-1.25 1.32377,-1.25 0.30318,0 0.55123,0.5625 0.55123,1.25 0,0.6875 -0.5957,1.25 -1.32378,1.25 -0.72807,0 -0.97612,-0.5625 -0.55122,-1.25 z M 152.3984,158.2496 c 0.33999,-2.31646 4.07599,-6.69096 5.71435,-6.69096 1.6606,0 1.53476,1.22316 -0.50458,4.90433 -1.85058,3.34045 -5.62795,4.63586 -5.20977,1.78663 z m -56.230374,-4.32357 c -1.483614,-2.40054 2.201162,-3.51501 5.176334,-1.5656 3.93193,2.57629 5.31521,-0.16439 1.91159,-3.78739 -2.67922,-2.85189 -3.561042,-7.0144 -1.486,-7.0144 0.62973,0 2.93755,2.26333 5.12849,5.0296 3.00866,3.79876 3.65,5.43148 2.62067,6.67175 -1.69515,2.04253 -12.177192,2.56544 -13.351084,0.66604 z m 13.206964,-2.36739 c 0,-0.6875 -0.24806,-1.25 -0.55123,-1.25 -0.30318,0 -0.89887,0.5625 -1.32377,1.25 -0.4249,0.6875 -0.17685,1.25 0.55123,1.25 0.72807,0 1.32377,-0.5625 1.32377,-1.25 z m -5.5,-7 c -0.44487,-1.1593 -1.0901,-1.82657 -1.43385,-1.48282 -0.34375,0.34375 -0.26102,1.57352 0.18385,2.73282 0.44486,1.1593 1.09009,1.82658 1.43384,1.48283 0.34375,-0.34375 0.26102,-1.57353 -0.18384,-2.73283 z m -44.812503,5.6408 c -2.393083,-4.2046 -2.917539,-7.98954 -0.9375,-6.7658 0.6875,0.4249 1.30607,-0.24502 1.3746,-1.48872 0.08526,-1.54748 0.408747,-1.27483 1.024752,0.86372 0.525509,1.82438 0.343588,3.5548 -0.4371,4.15766 -0.925175,0.71445 -0.851351,1.2295 0.239572,1.67144 0.867253,0.35134 2.152668,1.71476 2.85648,3.02984 2.242681,4.19049 -1.699542,2.78597 -4.120804,-1.46814 z m 32.693735,0.4217 c -3.818569,-4.75626 -6.04483,-9.92919 -3.631235,-8.4375 0.6875,0.4249 1.25,0.17685 1.25,-0.55122 0,-0.72808 -0.421875,-1.32447 -0.9375,-1.3253 -1.260818,-0.002 -1.202551,-9.51904 0.06606,-10.79104 0.551962,-0.55343 0.596995,0.0533 0.100075,1.34822 -0.671461,1.74979 -0.484791,2.09568 0.726869,1.34684 1.241585,-0.76735 1.497436,-0.102 1.072936,2.79034 -0.407181,2.7743 -0.115537,3.62839 1.082067,3.16882 0.901722,-0.34602 1.639491,-0.026 1.639491,0.7111 0,0.73714 1.726107,3.30618 3.835794,5.70898 3.754581,4.27622 3.774431,4.36604 0.9375,4.24174 -5.75942,-0.25235 -6.467948,0.0596 -4.773294,2.10152 0.855861,1.03125 1.293167,1.875 0.97179,1.875 -0.321376,0 -1.374626,-0.98437 -2.340555,-2.1875 z m 2.618765,-5.344 c 0,-0.55771 -0.340191,-1.90055 -0.755981,-2.98409 -1.058834,-2.75927 -2.994019,-1.1918 -2.994019,2.42513 0,2.16377 0.528026,2.80937 1.875,2.2925 1.03125,-0.39574 1.875,-1.17583 1.875,-1.73354 z M 55.226583,139.8234 c -0.388987,-1.01368 -1.089442,-6.5534 -1.556569,-12.31046 -0.817896,-10.08013 -0.739636,-10.53917 2.115327,-12.4075 l 2.964646,-1.9401 0.42703,12.00915 c 0.234866,6.60504 0.07167,11.65845 -0.362654,11.22983 -0.434325,-0.42863 -0.921764,-4.04268 -1.083197,-8.03122 -0.177302,-4.38061 -0.899824,-7.45401 -1.824847,-7.76235 -1.817167,-0.60572 -1.86869,1.39078 -0.313581,12.1511 1.152198,7.97245 1.013065,10.65574 -0.366155,7.06155 z m 42.228404,-2.58966 c 0.266324,-1.40255 0.545956,-3.1126 0.621406,-3.8001 0.138115,-1.2585 3.671717,4.25685 3.754297,5.85981 0.0244,0.4729 -1.05915,0.7767 -2.407816,0.6751 -1.754383,-0.13215 -2.31433,-0.91031 -1.967887,-2.73481 z m -3.3925,-3.8963 c -0.515625,-0.52 -0.9375,-2.08921 -0.9375,-3.48714 0,-1.83972 0.377591,-2.16407 1.367225,-1.17443 0.751974,0.75197 1.173849,2.32118 0.9375,3.48713 -0.236349,1.16595 -0.8516,1.69445 -1.367225,1.17444 z m 73.377303,-11.05478 c -0.0501,-7.36742 -0.64339,-9.83945 -3.54337,-14.76448 -1.91573,-3.2535 -5.26365,-7.41364 -7.4398,-9.244748 -2.17615,-1.831112 -3.81601,-3.52853 -3.64413,-3.772042 0.81627,-1.156502 0.16603,-2.942748 -1.07124,-2.942748 -0.77449,0 -1.04859,0.963137 -0.62254,2.1875 0.55124,1.584158 0.10125,1.410976 -1.63147,-0.627899 -1.591,-1.87209 -3.12639,-2.533845 -4.58253,-1.975076 -1.221,0.468543 -1.87432,0.331568 -1.4767,-0.309602 0.85961,-1.386125 -18.96372,-0.362583 -21.21469,1.095382 -0.84517,0.547418 -2.81392,0.314701 -4.375,-0.51715 -2.52242,-1.344115 -2.65767,-1.293372 -1.21514,0.455911 1.09079,1.322741 1.19329,2.234062 0.3125,2.77842 -0.72088,0.445531 -1.31069,0.385265 -1.31069,-0.133924 0,-0.519189 -1.96875,0.964209 -4.375,3.296438 -2.40625,2.332228 -4.375,3.627758 -4.375,2.878948 0,-0.748813 0.96861,-1.733167 2.15247,-2.187456 1.79598,-0.689184 1.85762,-1.008204 0.37218,-1.926257 -0.97916,-0.605153 -2.22902,-0.822947 -2.77747,-0.483985 -0.54845,0.338961 -0.99718,0.354853 -0.99718,0.03532 0,-0.319536 2.62021,-2.316529 5.82268,-4.437763 3.82622,-2.53438 6.30503,-3.456481 7.22943,-2.689297 0.86597,0.718691 2.11139,0.721817 3.23981,0.0081 1.48915,-0.941834 1.36402,-1.177813 -0.66692,-1.25773 -2.2953,-0.09031 -2.26927,-0.191103 0.31793,-1.230871 3.45718,-1.389402 11.70217,-1.205085 10.80805,0.241612 -0.70341,1.138148 -0.31908,1.266593 4.72732,1.579939 1.84432,0.114525 3.05305,-0.277613 2.68606,-0.871403 -0.36698,-0.59379 -1.45409,-0.777675 -2.4158,-0.408632 -0.96171,0.369047 -1.74856,0.126146 -1.74856,-0.539778 0,-2.000476 9.6486,-1.383595 11.78571,0.753518 1.08036,1.080356 1.96429,1.555676 1.96429,1.056265 0,-0.499411 1.18405,0.163535 2.63123,1.473214 1.44718,1.30968 2.80655,2.099985 3.02083,1.756235 0.21429,-0.34375 0.81147,-0.203125 1.3271,0.3125 0.51562,0.515625 0.24806,0.9375 -0.5946,0.9375 -0.84266,0 -1.15418,0.611512 -0.69225,1.358915 0.51751,0.837351 1.28585,0.912922 2.00187,0.196896 0.71603,-0.716025 3.40449,-0.02674 7.00469,1.795916 3.21346,1.626864 6.56458,2.680915 7.4469,2.342335 0.88233,-0.33858 1.60423,-0.07075 1.60423,0.595169 0,0.665922 0.90392,1.210768 2.00873,1.210768 1.26479,0 1.7444,0.68886 1.29499,1.86001 -0.39256,1.023 -0.10125,1.72612 0.64751,1.5625 0.74869,-0.16363 1.64518,0.48391 1.99218,1.43899 0.42319,1.16473 0.10237,1.40982 -0.97439,0.74436 -1.06045,-0.65539 -1.2983,-0.4954 -0.70079,0.4714 0.49748,0.80494 1.38928,1.16392 1.98177,0.79774 2.68087,-1.65687 2.5597,2.44611 -0.13273,4.49403 -2.4772,1.88421 -2.74334,2.66157 -1.5461,4.51598 0.7954,1.232 2.06103,2.09937 2.8125,1.92749 1.9738,-0.45144 1.6781,2.43612 -0.57955,5.65937 -2.22795,3.18084 -4.30412,3.63541 -4.30412,0.94236 0,-1.11824 0.73286,-1.55454 1.875,-1.11626 1.8804,0.72158 2.69757,-1.41609 0.9375,-2.45243 -1.68167,-0.99017 -6.5625,1.52743 -6.5625,3.38501 0,0.99611 -0.70313,2.06224 -1.5625,2.36915 -0.85938,0.30693 -1.20759,0.94309 -0.77382,1.41369 0.43379,0.47061 1.64478,-4.3e-4 2.6911,-1.04674 1.5323,-1.53231 2.02677,-1.5783 2.5417,-0.23639 0.40429,1.05355 -0.81478,2.11209 -3.31608,2.8794 l -3.9554,1.21338 -0.0602,-8.84902 z m 5.6852,-2.376 c 0,-0.3193 -0.84375,-0.90432 -1.875,-1.30005 -1.36339,-0.52318 -1.875,0.14683 -1.875,2.45555 0,2.82227 0.20833,2.96672 1.875,1.30005 1.03125,-1.03125 1.875,-2.13624 1.875,-2.45555 z m 2.86263,-5.84974 c 0.35982,-1.37595 0.20312,-2.22293 -0.34822,-1.88218 -0.55135,0.34075 -1.31104,-0.18463 -1.68821,-1.16752 -0.37717,-0.98288 -0.0143,-2.03916 0.80652,-2.34729 0.92969,-0.34902 0.63593,-0.91329 -0.77925,-1.49673 -1.24934,-0.51509 -2.85209,-0.35595 -3.56166,0.35363 -1.70883,1.70883 -0.10758,6.54181 2.16742,6.54181 0.98492,0 1.79077,0.5625 1.79077,1.25 0,2.10612 0.92161,1.39077 1.61263,-1.25172 z m -7.14598,-9.99828 c 4.25602,0 3.786,-2.13605 -0.68615,-3.1183 -5.04347,-1.10773 -6.3539,-0.0457 -4.6,3.72793 0.97982,2.10816 1.57451,2.51 1.84865,1.24916 0.22251,-1.02337 1.76747,-1.85879 3.4375,-1.85879 z m -4.66422,-6.398551 c -2.5229,-1.599021 -4.80243,-1.314122 -4.80243,0.600213 0,1.15717 1.0367,1.503482 3.23993,1.082307 2.36579,-0.452249 2.78737,-0.906201 1.5625,-1.68252 z m -33.55243,-9.092711 c 0,-0.270195 -0.84375,-0.815041 -1.875,-1.210769 -1.03125,-0.395729 -1.875,-0.17466 -1.875,0.491264 0,0.665922 0.84375,1.210769 1.875,1.210769 1.03125,0 1.875,-0.221069 1.875,-0.491264 z M 96.004683,128.4339 c -1.505402,-1.05442 -3.639499,-1.50523 -4.877232,-1.03027 -1.995362,0.76569 -1.975683,0.5431 0.210936,-2.38598 1.766451,-2.36624 2.52458,-2.73418 2.833924,-1.37538 0.357726,1.57131 0.787926,1.5242 2.8125,-0.30802 2.312146,-2.09246 2.390176,-2.01392 2.390176,2.40565 0,5.25842 0.135862,5.14982 -3.370304,2.694 z m -1.531012,-10.10442 c 0.05998,-1.45618 0.356176,-1.75238 0.755208,-0.75521 0.361089,0.90234 0.31668,1.98047 -0.09869,2.39583 -0.415365,0.41536 -0.710801,-0.32292 -0.656525,-1.64062 z m 3.659017,-1.45834 c -0.0042,-0.85937 -0.911632,-1.5625 -2.016437,-1.5625 -1.318152,0 -1.747889,-0.67975 -1.25,-1.97723 0.417305,-1.08748 0.76735,-2.63436 0.777877,-3.4375 0.01253,-0.95585 0.384228,-0.88433 1.076045,0.20704 0.85096,1.34242 1.204943,1.28153 1.816629,-0.3125 0.417847,-1.08889 0.18168,-1.97981 -0.524818,-1.97981 -0.706496,0 -0.931225,-0.57167 -0.499396,-1.27039 0.43183,-0.69871 1.245268,-0.98602 1.807641,-0.63845 0.562373,0.34757 0.945381,-0.0651 0.851131,-0.91711 -0.0943,-0.85198 0.39113,-1.68967 1.07863,-1.86155 0.6875,-0.17187 1.25861,0.10938 1.26914,0.625 0.0105,0.51563 0.4656,1.64063 1.01127,2.5 0.95176,1.49892 0.20396,2.0839 -2.12126,1.65941 -0.59997,-0.10952 -0.76493,0.65021 -0.36657,1.68831 0.39835,1.0381 -0.0917,3.45172 -1.088951,5.36362 -0.997277,1.91189 -1.816696,2.77304 -1.820931,1.91366 z m -39.967947,-6.17623 c -0.02186,-0.8188 0.517146,-1.83291 1.197801,-2.25358 0.7803,-0.48225 0.670729,-1.37164 -0.296554,-2.40712 -1.261435,-1.35037 -1.81521,-1.28308 -3.115622,0.37858 -1.396845,1.78488 -1.48599,1.72893 -0.763447,-0.47915 0.449937,-1.375 1.716942,-3.58106 2.815568,-4.90237 1.098625,-1.321298 1.294375,-1.991226 0.435,-1.488725 -1.876471,1.097225 -2.127904,-1.236922 -0.257744,-2.392745 0.717616,-0.443511 2.034996,-0.200338 2.927511,0.540384 2.192112,1.819291 3.032944,0.70378 2.31205,-3.067334 -0.555967,-2.90836 -0.7155,-2.971866 -2.28129,-0.908122 -0.925935,1.220402 -1.701408,1.555967 -1.723273,0.7457 -0.02186,-0.810269 0.70355,-2.216519 1.612032,-3.125 1.610156,-1.610158 2.058493,-2.54709 2.136225,-4.464286 0.0209,-0.515625 0.613849,0.05132 1.317653,1.2599 0.703802,1.20857 0.958772,2.716576 0.566598,3.351127 -0.392172,0.63455 -0.160622,1.495141 0.514557,1.912425 1.428867,0.883089 -2.254019,9.414046 -4.064124,9.414046 -0.64035,0 -0.876916,1.09886 -0.525701,2.44191 0.351215,1.34304 -0.12779,3.45242 -1.064457,4.6875 -0.936666,1.23507 -1.720918,1.57566 -1.742783,0.75686 z m 45.190169,-8.50583 c -0.78602,-1.72512 -0.9025,-3.339765 -0.26916,-3.73119 1.39914,-0.864717 2.93235,1.45341 1.98022,2.99399 -0.38861,0.62878 -0.0276,1.36954 0.80216,1.64614 1.00944,0.33648 1.07251,0.7725 0.19057,1.31757 -0.72498,0.44806 -1.94168,-0.55386 -2.70379,-2.22651 z M 67.302709,90.599153 c 0.329852,-1.558969 -0.18741,-3.621626 -1.149467,-4.583685 -3.396439,-3.396439 19.013306,-23.308443 28.229812,-25.08338 1.510853,-0.290964 3.550944,-1.196236 4.533538,-2.011716 1.415778,-1.174988 2.135898,-1.004904 3.469978,0.819558 1.58186,2.163313 1.81119,2.174507 3.80022,0.185482 1.98902,-1.989027 1.98565,-2.11677 -0.0559,-2.11677 -3.10249,0 -1.78698,-0.766207 2.81848,-1.641587 2.87394,-0.546262 4.14652,-0.237081 4.67318,1.135372 0.41057,1.069935 0.18905,1.555598 -0.51193,1.122366 -0.67963,-0.420031 -1.23568,-0.167996 -1.23568,0.560077 0,0.759837 3.06192,1.391297 7.1875,1.482278 l 7.1875,0.158506 -8.125,1.101325 c -4.46875,0.60573 -9.08241,0.875366 -10.25257,0.599193 -1.17016,-0.276174 -2.32374,0.0864 -2.56352,0.805723 -0.23977,0.719322 -1.53237,1.402634 -2.87243,1.518472 -1.34007,0.115838 -4.827108,1.44777 -7.748983,2.95985 -2.921875,1.512078 -5.3125,2.349042 -5.3125,1.859917 0,-0.489124 -0.758416,0.14788 -1.68537,1.415565 -1.093088,1.494885 -2.301114,1.9477 -3.4375,1.288505 -0.963671,-0.559006 -1.318814,-0.539751 -0.789205,0.04279 1.25516,1.380606 -7.860898,10.724992 -9.484193,9.721741 -0.682002,-0.421501 -0.921722,-0.251375 -0.532712,0.378056 1.108606,1.793763 -2.444569,5.872053 -4.180988,4.798886 -0.971571,-0.600463 -1.204365,-0.422401 -0.640515,0.489929 0.487184,0.788279 0.254143,2.422065 -0.517868,3.630635 -1.238058,1.938159 -1.332902,1.862998 -0.803927,-0.637089 z M 77.678558,78.433642 c 1.666666,-1.666667 1.656746,-1.875 -0.08928,-1.875 -1.080357,0 -1.964286,-0.595698 -1.964286,-1.323772 0,-0.728073 -0.5625,-0.976127 -1.25,-0.551228 -1.675183,1.03532 -1.60233,5.625 0.08929,5.625 0.736607,0 2.183035,-0.84375 3.214285,-1.875 z M 87.696956,65.713944 c -1.275588,-1.275589 -7.786255,4.37937 -7.786255,6.762894 0,1.974419 0.720357,1.659066 4.232143,-1.85272 2.327679,-2.327679 3.927029,-4.537256 3.554112,-4.910174 z m 10.203575,-2.280302 c -0.333397,-1.040449 -3.21457,-1.407668 -6.070187,-0.773673 -0.368303,0.08178 -0.669643,1.226103 -0.669643,2.54296 0,2.140225 0.378841,2.239705 3.570187,0.9375 1.963603,-0.801232 3.389943,-2.019287 3.169643,-2.706787 z m 25.224459,-5.745245 c 1.45021,-1.030207 1.11358,-1.166425 -1.4859,-0.601272 -1.84849,0.40188 -3.70981,0.166128 -4.13627,-0.523896 -0.47086,-0.761871 1.24623,-1.254587 4.37217,-1.254587 3.05088,0 4.8385,0.500032 4.38882,1.227641 -0.48641,0.787021 10.1424,1.356184 29.61373,1.585785 l 30.37245,0.358146 -32.5,0.270073 c -23.27402,0.193406 -31.96773,-0.10804 -30.625,-1.06189 z M 76.874987,49.058642 c 0,-0.6875 0.595697,-1.25 1.323771,-1.25 0.728074,0 0.976128,0.5625 0.551229,1.25 -0.424899,0.6875 -1.020595,1.25 -1.323771,1.25 -0.303177,0 -0.551229,-0.5625 -0.551229,-1.25 z m 3.75,-2.5 c 0,-0.6875 0.595697,-1.25 1.323771,-1.25 0.728074,0 0.976128,0.5625 0.551229,1.25 -0.424899,0.6875 -1.020595,1.25 -1.323771,1.25 -0.303177,0 -0.551229,-0.5625 -0.551229,-1.25 z m 5,-2.5 c 1.03125,-0.666445 2.4375,-1.211718 3.125,-1.211718 0.6875,0 0.40625,0.545273 -0.625,1.211718 -1.03125,0.666445 -2.4375,1.211717 -3.125,1.211717 -0.6875,0 -0.40625,-0.545272 0.625,-1.211717 z M 184.91904,207.67767 c -0.38038,-0.61547 -1.50215,-1.11903 -2.49283,-1.11903 -0.99067,0 -1.80122,-0.50232 -1.80122,-1.11626 0,-1.6339 -3.1064,-2.55405 -4.89355,-1.44953 -1.06494,0.65817 -0.28964,1.74574 2.50657,3.51618 3.85335,2.43977 8.15173,2.54826 6.68103,0.16864 z m 1.26123,-6.00623 c 0.86108,-1.39326 -0.45226,-5.1128 -1.80528,-5.1128 -1.35303,0 -2.66637,3.71954 -1.80529,5.1128 0.38656,0.62546 1.19894,1.1372 1.80529,1.1372 0.60635,0 1.41872,-0.51174 1.80528,-1.1372 z m -10.55528,-1.85406 c 0,-0.9577 -0.87297,-2.07625 -1.93993,-2.48569 -1.1124,-0.42686 -1.61415,-0.21731 -1.17622,0.49126 0.42002,0.67963 -0.14645,1.23569 -1.25885,1.23569 -1.1124,0 -1.6749,0.5625 -1.25,1.25 1.16672,1.8878 5.625,1.49844 5.625,-0.49126 z m 6.87318,-7.00051 c 1.12349,-5.11515 -1.73205,-8.2118 -5.1582,-5.59378 -1.6004,1.2229 -1.89938,2.09186 -0.94596,2.7493 0.76671,0.52869 1.78899,2.22688 2.27174,3.77375 1.21955,3.9079 2.85722,3.5108 3.83242,-0.92927 z m -118.732986,-6.0347 c -0.993262,-0.99327 -3.142443,1.26157 -2.379337,2.4963 0.519049,0.83983 1.163246,0.71198 1.827424,-0.36268 0.564181,-0.91286 0.812542,-1.87299 0.551913,-2.13362 z m -13.140197,1.02647 c 0,-0.6875 -0.5625,-1.25 -1.25,-1.25 -0.6875,0 -1.25,0.5625 -1.25,1.25 0,0.6875 0.5625,1.25 1.25,1.25 0.6875,0 1.25,-0.5625 1.25,-1.25 z m 8.125,0 c 0.424899,-0.6875 -0.15128,-1.25 -1.280395,-1.25 -1.129116,0 -1.795126,-0.70312 -1.480021,-1.5625 0.315103,-0.85937 1.229816,-1.41385 2.032695,-1.23216 1.080327,0.24447 1.109511,-0.32414 0.112275,-2.1875 -1.70204,-3.18029 -4.179263,-3.30944 -3.181533,-0.16586 0.489166,1.54122 0.02117,2.63028 -1.357636,3.15938 -1.920079,0.73682 -1.896003,0.96495 0.275249,2.60828 2.852271,2.15877 3.854716,2.28827 4.879366,0.63036 z m 136.875003,-1.25 c 0,-1.81721 -0.83334,-2.5 -3.05123,-2.5 -1.67817,0 -3.45154,-0.64771 -3.94081,-1.43936 -0.61638,-0.99734 -1.40679,-0.73203 -2.57376,0.86391 -0.92632,1.2668 -1.6842,2.75826 -1.6842,3.31436 0,1.62732 3.48615,1.16085 4.12096,-0.55141 0.42429,-1.14441 1.19277,-0.97717 2.87202,0.625 2.99522,2.85775 4.25702,2.76513 4.25702,-0.3125 z m 10.625,-3.125 c 0,-1.26041 -0.70313,-2.52604 -1.5625,-2.8125 -0.98959,-0.32986 -1.5625,0.70139 -1.5625,2.8125 0,2.11111 0.57291,3.14236 1.5625,2.8125 0.85937,-0.28646 1.5625,-1.55209 1.5625,-2.8125 z m -156.163631,0.48525 c 1.077522,-1.74347 -2.176156,-3.89546 -3.654507,-2.41711 -1.2024,1.2024 -0.04404,3.80686 1.693135,3.80686 0.606351,0 1.48897,-0.62539 1.961372,-1.38975 z m 149.038631,-2.61025 c 0.825,-0.825 1.49628,-3.77812 1.49176,-6.5625 l -0.009,-5.0625 -2.48353,3.75 c -3.86567,5.83698 -3.08778,11.96279 1,7.875 z m 6.5,-9.75 c 0,-0.6875 -0.5625,-1.25 -1.25,-1.25 -0.6875,0 -1.25,0.5625 -1.25,1.25 0,0.6875 0.5625,1.25 1.25,1.25 0.6875,0 1.25,-0.5625 1.25,-1.25 z m -172.103667,-2.063 c 0.447151,-0.44715 -0.503314,-2.03292 -2.112146,-3.52394 -1.608833,-1.49102 -3.216871,-3.5158 -3.57342,-4.4995 -0.50124,-1.38291 -1.00433,-1.45376 -2.218179,-0.3124 -1.245765,1.17137 -0.826366,2.25583 2.03125,5.2523 3.80621,3.99117 4.565941,4.39009 5.872495,3.08354 z m 172.065647,-12.6245 c -0.0326,-2.9487 -0.21996,-3.12504 -1.31765,-1.2401 -0.7038,1.20858 -0.93475,2.75545 -0.51322,3.4375 1.29244,2.0912 1.87062,1.39728 1.83087,-2.1974 z M 31.589919,149.71649 c 0.844288,-4.45069 1.535068,-9.91497 1.535068,-12.14286 0,-3.67364 -0.181911,-3.86879 -1.954265,-2.09644 -2.102309,2.10231 -4.038638,22.33145 -2.13756,22.33145 0.56193,0 1.712471,-3.64146 2.556757,-8.09215 z m -0.907787,-26.90785 c 0.128072,-3.78125 0.503456,-5.75 0.834187,-4.375 0.330732,1.375 1.10923,3.03438 1.729999,3.6875 1.929706,2.03029 1.190033,-7.25125 -0.786085,-9.86391 -1.009386,-1.33453 -1.835246,-4.30956 -1.835246,-6.61119 l 0,-4.18479 -2.776783,2.58697 c -2.348733,2.18818 -2.541425,2.96383 -1.25,5.03173 1.83623,2.94027 2.072279,19.97869 0.276783,19.97869 -1.804358,0 -1.540768,3.44148 0.3125,4.08005 2.18388,0.75249 3.223347,-2.32014 3.494645,-10.33005 z m 3.296747,7.26563 c -0.399032,-0.99717 -0.695228,-0.70098 -0.755208,0.75521 -0.05428,1.3177 0.24116,2.05599 0.656525,1.64062 0.415363,-0.41537 0.459772,-1.4935 0.09869,-2.39583 z M 30.110483,94.377472 c -1.365499,-1.365499 -2.301842,0.806071 -1.321471,3.06476 0.929595,2.141707 0.996982,2.139753 1.51492,-0.04393 0.298126,-1.256935 0.211075,-2.61631 -0.193449,-3.020834 z m 6.720524,-0.236654 c 0.711689,-1.329803 1.29398,-3.612999 1.29398,-5.073771 0,-1.460772 0.5625,-2.308304 1.25,-1.883405 0.6875,0.424898 1.25,0.08051 1.25,-0.765303 0,-0.845815 0.934051,-2.569961 2.07567,-3.831435 2.240569,-2.475801 2.085709,-3.143042 -0.82567,-3.557529 -4.841879,-0.689328 -6.538731,0.04015 -5.887363,2.530992 0.416183,1.591485 0.164535,2.199086 -0.691635,1.669943 -0.842686,-0.52081 -1.056631,-0.07809 -0.572255,1.184175 0.425478,1.108777 -0.07906,3.725138 -1.121186,5.814137 -2.74091,5.494283 0.366508,9.259803 3.228459,3.912196 z m -8.70602,-6.332176 c 0,-2.0625 -0.5625,-3.75 -1.25,-3.75 -0.6875,0 -1.25,1.6875 -1.25,3.75 0,2.0625 0.5625,3.75 1.25,3.75 0.6875,0 1.25,-1.6875 1.25,-3.75 z m 0,-8.181819 c 0,-1.0625 1.380681,-3.3125 3.068181,-5 1.6875,-1.6875 3.9375,-3.068181 5,-3.068181 1.0625,0 1.931819,-0.5625 1.931819,-1.25 0,-0.6875 -1.6875,-1.25 -3.75,-1.25 -2.916666,0 -3.75,0.555555 -3.75,2.5 0,1.666666 -0.833334,2.5 -2.5,2.5 -1.944445,0 -2.5,0.833333 -2.5,3.75 0,2.0625 0.5625,3.75 1.25,3.75 0.6875,0 1.25,-0.869319 1.25,-1.931819 z m 20,-16.461039 c 0,-3.126126 -0.159031,-3.233825 -2.022905,-1.369951 -1.112599,1.112597 -1.641901,2.639384 -1.176229,3.392857 1.534024,2.482103 3.199134,1.429205 3.199134,-2.022906 z M 212.18749,65.73079 c -0.85938,-0.346765 -2.26563,-0.346765 -3.125,0 -0.85938,0.346767 -0.15625,0.630483 1.5625,0.630483 1.71875,0 2.42187,-0.283716 1.5625,-0.630483 z m -15,-6.25 c -0.85938,-0.346765 -2.26563,-0.346765 -3.125,0 -0.85938,0.346767 -0.15625,0.630483 1.5625,0.630483 1.71875,0 2.42187,-0.283716 1.5625,-0.630483 z M 50.624987,55.558642 c 0,-1.557779 -2.823818,-4 -4.625,-4 -0.89375,0 -1.625,0.5625 -1.625,1.25 0,0.6875 0.84375,1.25 1.875,1.25 1.03125,0 1.875,0.5625 1.875,1.25 0,0.6875 0.5625,1.25 1.25,1.25 0.6875,0 1.25,-0.45 1.25,-1 z m 20.908911,-4 c 1.74803,-1.375 2.499699,-2.5 1.670376,-2.5 -0.829322,0 -2.351608,0.84375 -3.382858,1.875 -2.634852,2.634851 -4.899325,2.380938 -2.786985,-0.3125 1.552461,-1.979539 1.508903,-2.025492 -0.458182,-0.483367 -2.187265,1.71474 -1.912772,3.920867 0.487848,3.920867 0.710361,0 2.721772,-1.125 4.469801,-2.5 z m -20.908911,-1.25 c 0,-0.6875 -0.5625,-1.25 -1.25,-1.25 -0.6875,0 -1.25,0.5625 -1.25,1.25 0,0.6875 0.5625,1.25 1.25,1.25 0.6875,0 1.25,-0.5625 1.25,-1.25 z m 12.5,0 c 0,-0.6875 -2.001948,-1.25 -4.448771,-1.25 -2.647543,0 -4.135983,0.506102 -3.676229,1.25 0.424899,0.6875 2.426845,1.25 4.448771,1.25 2.021926,0 3.676229,-0.5625 3.676229,-1.25 z M 76.745016,41.55157 c 0.415233,-0.0039 0.839398,-2.25389 0.942588,-5 l 0.187618,-4.992928 -4.875118,0 c -2.681315,0 -4.875117,-0.5625 -4.875117,-1.25 0,-0.6875 -0.5625,-1.25 -1.25,-1.25 -2.029103,0 -1.427178,10.738687 0.821546,14.656861 l 2.071546,3.609461 3.110983,-2.883161 c 1.71104,-1.585739 3.450719,-2.886344 3.865954,-2.890233 z m -9.417997,-3.117928 c -0.862186,-2.246824 0.261024,-5.625 1.870257,-5.625 0.632913,0 2.478692,1.113572 4.101731,2.474606 2.518485,2.111927 2.67618,2.658722 1.07598,3.730859 -2.759161,1.848642 -6.225379,1.563167 -7.047968,-0.580465 z m 159.547971,2.5 c 0,-2.419309 -2.45389,-3.671114 -4.05594,-2.069062 -0.95081,0.95081 -0.87829,1.892152 0.25055,3.252322 1.7622,2.123316 3.80539,1.488 3.80539,-1.18326 z m -100,-5.625 c 0,-0.6875 -1.6875,-1.25 -3.75,-1.25 -2.0625,0 -3.75,0.5625 -3.75,1.25 0,0.6875 1.6875,1.25 3.75,1.25 2.0625,0 3.75,-0.5625 3.75,-1.25 z m 78.75,-1.875 c -1.32309,-1.594229 -7.46683,-1.875 -41.02805,-1.875 -25.92618,0 -39.04923,0.422727 -38.24014,1.231816 0.7415,0.741492 16.88735,1.370794 40.5625,1.580965 21.63187,0.192031 39.54019,0.481464 39.79624,0.643184 0.25606,0.161718 -0.23469,-0.549715 -1.09055,-1.580965 z m 20,-2.5 c 0,-1.03125 -0.5625,-1.875 -1.25,-1.875 -0.6875,0 -1.25,0.84375 -1.25,1.875 0,1.03125 0.5625,1.875 1.25,1.875 0.6875,0 1.25,-0.84375 1.25,-1.875 z m -17.5,-0.625 c 0,-0.6875 -0.5957,-1.25 -1.32378,-1.25 -0.72807,0 -0.97612,0.5625 -0.55122,1.25 0.4249,0.6875 1.0206,1.25 1.32377,1.25 0.30318,0 0.55123,-0.5625 0.55123,-1.25 z"
         id="path4149"
         inkscape:connector-curvature="0" />
    </g>
  </g>
</svg>
